# xmcd CD database file
#
# Track frame offsets:
#	151
#	21262
#	44637
#	68249
#	107958
#	129490
#	154718
#	185612
#	211217
#	237323
#	254830
#	282185
#
# Disc length: 4142 seconds
#
# Revision: 0
# Processed by: cddbd v1.4PL0 Copyright (c) Steve Scherf et al.
# Submitted via: CDex 1.50beta10
#
DISCID=b7102c0c
DTITLE=Larry Brown Quartet - The Long Goodbye
DYEAR=2002
DGENRE=Jazz
TTITLE0=The Long Goodbye
TTITLE1=Plaza San Martin
TTITLE2=Duck, Duck, Goose
TTITLE3=Sitting On A Cloud
TTITLE4=Billie's Bounce
TTITLE5=Dindi
TTITLE6=Picadilly Hunt
TTITLE7=The Things We Did Last Summer
TTITLE8=Rainsville
TTITLE9=Bemsha Swing
TTITLE10=Cast Your Fate To The WInd
TTITLE11=Your'e My Everything
EXTD=YEAR: 2002
EXTT0=
EXTT1=
EXTT2=
EXTT3=
EXTT4=
EXTT5=
EXTT6=
EXTT7=
EXTT8=
EXTT9=
EXTT10=
EXTT11=
PLAYORDER=
